<?xml version="1.0" encoding="utf-8"?>
<!-- Generator: Adobe Illustrator 24.1.1, SVG Export Plug-In . SVG Version: 6.00 Build 0)  -->
<svg version="1.1" id="Layer_1" xmlns="http://www.w3.org/2000/svg" xmlns:xlink="http://www.w3.org/1999/xlink" x="0px" y="0px"
	 viewBox="0 0 234.3 54.4" style="enable-background:new 0 0 234.3 54.4;" xml:space="preserve">
<style type="text/css">
	.st0{fill:#212121;}
</style>
<g>
	<path class="st0" d="M54.4,40.9h9V19.3L53.3,9.2L47,15.6l7.5,7.5L54.4,40.9L54.4,40.9z M63.5,45.4H50.4H32.1l-7.5-7.5l3.2-3.2
		l6.2,6.2h12.7L34.2,28.4l3.2-3.2l12.6,12.6V25l-6.2-6.2l3.2-3.2L31.3,0H15.9l0,0H0l9,9v0H9h18.6l6.6,6.6l-9.6,9.6L18,18.6v-5.1H9
		v8.9L24.5,38l-6.3,6.3l10.1,10.1h15.4h28.7v0L63.5,45.4z"/>
</g>
<path class="st0" d="M72.5,14.9H87l5.4,5.3v23.7l-4.7,4.7H72.5V14.9z M85.3,42.2V21.3h-5.8v20.9H85.3z"/>
<path class="st0" d="M95.2,14.9h16.3v6.4h-9.3v6.5h8.9v6.3h-8.8v8.1h9.5v6.4H95.2V14.9z"/>
<path class="st0" d="M127.4,14.9h7.2l-4.5,33.6H119l-4.6-33.6h7.3l2.8,25.8L127.4,14.9z"/>
<path class="st0" d="M166.9,14.8h20.4v33.7h-20.4V14.8z M173.9,42.1h6.2V21.2h-6.2V42.1z"/>
<path class="st0" d="M203.1,42.1V38h7.1v5.8l-4.7,4.7h-15.2V19.4l5-4.6h14.8v12.7h-7.1v-6.3h-5.7v20.9L203.1,42.1L203.1,42.1z"/>
<path class="st0" d="M234.3,29.8v18.7h-7.1V36.2h-7.1v12.3H213V14.8h7.1v15h0.5l6.6-15h7l-6.5,15H234.3z"/>
<polygon class="st0" points="159.8,37.2 162.7,37.2 162.7,30.2 162.7,15.2 152.6,15.2 145.7,15.2 150.5,30.2 143.7,30.2 143.7,37.2 
	143.7,49.2 150.7,49.2 150.7,37.2 152.9,37.2 153,37.2 157.1,49.2 164.2,49.2 164.2,49.2 "/>
</svg>
